<?xml version="1.0" encoding="UTF-8" standalone="no"?>
<!-- Created with Inkscape (http://www.inkscape.org/) -->

<svg
   width="217.29195mm"
   height="143.34203mm"
   viewBox="0 0 217.29195 143.34203"
   version="1.1"
   id="svg1"
   xml:space="preserve"
   inkscape:export-filename="2.svg"
   inkscape:export-xdpi="96"
   inkscape:export-ydpi="96"
   xmlns:inkscape="http://www.inkscape.org/namespaces/inkscape"
   xmlns:sodipodi="http://sodipodi.sourceforge.net/DTD/sodipodi-0.dtd"
   xmlns="http://www.w3.org/2000/svg"
   xmlns:svg="http://www.w3.org/2000/svg"><sodipodi:namedview
     id="namedview1"
     pagecolor="#ffffff"
     bordercolor="#666666"
     borderopacity="1.0"
     inkscape:showpageshadow="2"
     inkscape:pageopacity="0.0"
     inkscape:pagecheckerboard="0"
     inkscape:deskcolor="#d1d1d1"
     inkscape:document-units="mm" /><defs
     id="defs1" /><g
     inkscape:label="Layer 1"
     inkscape:groupmode="layer"
     id="layer1"
     transform="translate(3.134719,-106.0846)"><path
       style="fill:none;stroke:#000000;stroke-width:2;stroke-linecap:butt;stroke-linejoin:miter;stroke-dasharray:none;stroke-opacity:1"
       d="M -1.1795432,248.42662 H 212.08627 L 100.37561,107.74053 Z"
       id="path3"
       sodipodi:nodetypes="cccc" /><path
       style="fill:none;stroke:#000000;stroke-width:1.99125;stroke-linecap:round;stroke-linejoin:miter;stroke-dasharray:none;stroke-opacity:1"
       d="m 43.991819,186.24261 c 118.857971,0 118.857971,0 118.857971,0"
       id="path4" /><path
       style="fill:none;stroke:#000000;stroke-width:1.53206;stroke-linecap:round;stroke-linejoin:miter;stroke-dasharray:none;stroke-opacity:1"
       d="m 67.678229,154.54714 c 70.360521,0 70.360521,0 70.360521,0"
       id="path4-9" /><path
       style="fill:#fcf6bd;fill-opacity:1;stroke:none;stroke-width:10.1367;stroke-linecap:round;stroke-dasharray:none;stroke-opacity:1;paint-order:markers fill stroke"
       d="m 87.402532,821.07492 c 2.442463,-3.40221 21.705038,-30.10047 42.805718,-59.32948 l 38.36487,-53.14364 223.3063,-0.33912 223.3063,-0.33912 46.03765,57.89114 c 25.32071,31.84012 46.52015,58.69099 47.10986,59.6686 0.88921,1.47408 -52.38844,1.77746 -312.14967,1.77746 H 82.961689 Z"
       id="path7"
       transform="scale(0.26458333)" /><path
       style="fill:#d0f4de;fill-opacity:1;stroke:none;stroke-width:10.135;stroke-linecap:round;stroke-dasharray:none;stroke-opacity:1;paint-order:markers fill stroke"
       d="m 175.64207,699.2977 c 0,-0.32397 18.01587,-25.51386 40.03526,-55.97753 l 40.03526,-55.38849 131.91967,-0.31396 131.91968,-0.31396 34.18987,43.14841 c 18.80442,23.73162 38.88345,49.0628 44.62004,56.29149 l 10.43018,13.14308 H 392.21705 c -119.11623,0 -216.57498,-0.26507 -216.57498,-0.58904 z"
       id="path8"
       transform="scale(0.26458333)" /><path
       style="fill:#a9def9;fill-opacity:1;stroke:none;stroke-width:10.135;stroke-linecap:round;stroke-dasharray:none;stroke-opacity:1;paint-order:markers fill stroke"
       d="m 262.3909,578.7708 c 0.58972,-0.98263 27.55021,-38.44608 59.91222,-83.25212 l 58.84,-81.46552 2.96881,3.14056 c 2.1239,2.24676 115.12187,144.49891 128.43661,161.6877 1.03651,1.33811 -24.15603,1.67597 -124.96581,1.67597 -104.82317,0 -126.08196,-0.30338 -125.19183,-1.78659 z"
       id="path9"
       transform="scale(0.26458333)" /><text
       xml:space="preserve"
       style="font-style:normal;font-weight:normal;font-size:10.5833px;line-height:1.25;font-family:sans-serif;fill:#000000;fill-opacity:1;stroke:none;stroke-width:0.264583"
       x="75.552277"
       y="173.93568"
       id="text5"><tspan
         sodipodi:role="line"
         id="tspan5"
         style="stroke-width:0.264583"
         x="75.552277"
         y="173.93568">Integration</tspan></text><text
       xml:space="preserve"
       style="font-style:normal;font-weight:normal;font-size:10.5833px;line-height:1.25;font-family:sans-serif;text-align:center;text-anchor:middle;fill:#000000;fill-opacity:1;stroke:none;stroke-width:0.264583"
       x="101.60279"
       y="139.03152"
       id="text6"><tspan
         sodipodi:role="line"
         style="text-align:center;text-anchor:middle;stroke-width:0.264583"
         x="101.60279"
         y="139.03152"
         id="tspan7">E2E</tspan></text><path
       style="mix-blend-mode:luminosity;fill:none;stroke:#000000;stroke-width:1.98131;stroke-linecap:round;stroke-linejoin:miter;stroke-dasharray:none;stroke-opacity:1"
       d="M 20.911475,218.16991 H 187.32549"
       id="path10" /><path
       style="fill:#ff99c8;fill-opacity:1;stroke:none;stroke-width:10.135;stroke-linecap:round;stroke-dasharray:none;stroke-opacity:1;paint-order:markers fill stroke"
       d="m 14.465071,920.10972 c 5.768243,-7.92736 23.015277,-31.75971 38.326739,-52.96078 l 27.839024,-38.5474 313.985486,0.0177 313.98548,0.0177 36.38697,45.90399 c 20.01282,25.2472 38.91885,49.07159 42.01339,52.94309 l 5.62645,7.03909 H 398.30298 3.9773552 Z"
       id="path11"
       transform="scale(0.26458333)" /><text
       xml:space="preserve"
       style="font-style:normal;font-weight:normal;font-size:10.5833px;line-height:1.25;font-family:sans-serif;fill:#000000;fill-opacity:1;stroke:none;stroke-width:0.264583"
       x="93.889603"
       y="236.40944"
       id="text4"><tspan
         sodipodi:role="line"
         id="tspan4"
         style="stroke-width:0.264583"
         x="93.889603"
         y="236.40944">Unit</tspan></text><text
       xml:space="preserve"
       style="font-style:normal;font-weight:normal;font-size:10.5833px;line-height:1.25;font-family:sans-serif;fill:#000000;fill-opacity:1;stroke:none;stroke-width:0.264583"
       x="80.810341"
       y="205.70633"
       id="text11"><tspan
         sodipodi:role="line"
         id="tspan11"
         style="stroke-width:0.264583"
         x="80.810341"
         y="205.70633">API Tests</tspan></text></g></svg>
