<?xml version="1.0" encoding="UTF-8" standalone="no"?>
<!-- Created with Inkscape (http://www.inkscape.org/) -->

<svg
   width="216.55949mm"
   height="172.82053mm"
   viewBox="0 0 216.55949 172.82053"
   version="1.1"
   id="svg1"
   xml:space="preserve"
   inkscape:export-filename="3.svg"
   inkscape:export-xdpi="96"
   inkscape:export-ydpi="96"
   xmlns:inkscape="http://www.inkscape.org/namespaces/inkscape"
   xmlns:sodipodi="http://sodipodi.sourceforge.net/DTD/sodipodi-0.dtd"
   xmlns="http://www.w3.org/2000/svg"
   xmlns:svg="http://www.w3.org/2000/svg"><sodipodi:namedview
     id="namedview1"
     pagecolor="#ffffff"
     bordercolor="#666666"
     borderopacity="1.0"
     inkscape:showpageshadow="2"
     inkscape:pageopacity="0.0"
     inkscape:pagecheckerboard="0"
     inkscape:deskcolor="#d1d1d1"
     inkscape:document-units="mm" /><defs
     id="defs1" /><g
     inkscape:label="Layer 1"
     inkscape:groupmode="layer"
     id="layer1"
     transform="translate(2.7806318,-106.0216)"><path
       style="fill:none;stroke:#000000;stroke-width:2;stroke-linecap:butt;stroke-linejoin:miter;stroke-dasharray:none;stroke-opacity:1"
       d="M -1.0194221,277.84212 H 211.92632 l -111.543,-169.93664 z"
       id="path3"
       sodipodi:nodetypes="cccc" /><path
       style="fill:none;stroke:#000000;stroke-width:1.79781;stroke-linecap:round;stroke-linejoin:miter;stroke-dasharray:none;stroke-opacity:1"
       d="m 54.445626,186.24261 c 96.886114,0 96.886114,0 96.886114,0"
       id="path4" /><path
       style="fill:none;stroke:#000000;stroke-width:1.81507;stroke-linecap:round;stroke-linejoin:miter;stroke-dasharray:none;stroke-opacity:1"
       d="m 73.173671,154.54714 c 57.950639,0 57.950639,0 57.950639,0"
       id="path4-9" /><path
       style="mix-blend-mode:luminosity;fill:none;stroke:#000000;stroke-width:1.80213;stroke-linecap:round;stroke-linejoin:miter;stroke-dasharray:none;stroke-opacity:1"
       d="M 34.926362,218.16991 H 172.60111"
       id="path10" /><path
       style="mix-blend-mode:luminosity;fill:none;stroke:#000000;stroke-width:2.04479;stroke-linecap:round;stroke-linejoin:miter;stroke-dasharray:none;stroke-opacity:1"
       d="M 15.730959,250.21979 H 192.97838"
       id="path10-2" /><path
       style="fill:#70d6ff;fill-opacity:1;stroke:none;stroke-width:10.135;stroke-linecap:round;stroke-dasharray:none;stroke-opacity:1;paint-order:markers fill stroke"
       d="m 6.4314775,1041.4502 c 1.4453156,-2.3966 14.2424075,-23.8156 28.4379805,-47.59762 l 25.810134,-43.24013 h 334.881698 334.8817 l 30.09053,45.92168 c 16.5498,25.25697 30.52584,46.67587 31.05789,47.59767 0.77296,1.3392 -78.2861,1.676 -393.41021,1.676 H 3.803631 Z"
       id="path11"
       transform="scale(0.26458333)" /><path
       style="fill:#ff70a6;fill-opacity:1;stroke:none;stroke-width:10.135;stroke-linecap:round;stroke-dasharray:none;stroke-opacity:1;paint-order:markers fill stroke"
       d="m 67.03896,940.51548 c 0,-0.39133 14.932928,-25.73275 33.18428,-56.31427 l 33.18429,-55.60276 258.69597,0.33674 258.69598,0.33674 35.30694,53.63117 c 19.41882,29.49714 35.91483,54.68703 36.65782,55.97753 1.28499,2.23192 -14.67303,2.34636 -327.18721,2.34636 -180.69594,0 -328.53807,-0.32018 -328.53807,-0.71151 z"
       id="path12"
       transform="scale(0.26458333)" /><path
       style="fill:#ff9770;fill-opacity:1;stroke:none;stroke-width:10.135;stroke-linecap:round;stroke-dasharray:none;stroke-opacity:1;paint-order:markers fill stroke"
       d="m 164.05113,777.31674 c 14.18174,-23.78207 29.30379,-49.12494 33.60456,-56.31749 l 7.81959,-13.07735 183.0747,0.33995 183.0747,0.33995 32.63341,49.60883 c 17.94838,27.28486 34.43309,52.47475 36.63266,55.97753 l 3.99925,6.36871 H 391.57808 138.26615 Z"
       id="path13"
       transform="scale(0.26458333)" /><path
       style="fill:#ffd670;fill-opacity:1;stroke:none;stroke-width:10.135;stroke-linecap:round;stroke-dasharray:none;stroke-opacity:1;paint-order:markers fill stroke"
       d="m 212.13549,696.74619 c 0.94533,-1.72731 15.83311,-26.76636 33.08394,-55.64234 l 31.36515,-52.50178 h 108.14139 108.14139 l 32.70545,49.94402 c 17.988,27.46921 34.42883,52.50827 36.53515,55.64234 l 3.82968,5.69831 H 388.17716 210.41669 Z"
       id="path14"
       transform="scale(0.26458333)" /><path
       style="fill:#e9ff70;fill-opacity:1;stroke:none;stroke-width:10.135;stroke-linecap:round;stroke-dasharray:none;stroke-opacity:1;paint-order:markers fill stroke"
       d="m 284.83098,574.85908 c 1.88063,-3.13407 23.78629,-39.91963 48.67924,-81.74568 24.89294,-41.82605 45.6838,-75.91536 46.20189,-75.75403 0.95801,0.29834 106.99074,161.40862 106.99074,162.56592 0,0.34765 -46.19053,0.6321 -102.64561,0.6321 h -102.6456 z"
       id="path15"
       transform="scale(0.26458333)" /><text
       xml:space="preserve"
       style="font-style:normal;font-weight:normal;font-size:6.42168px;line-height:1.25;font-family:sans-serif;text-align:center;text-anchor:middle;fill:#000000;fill-opacity:1;stroke:none;stroke-width:0.160542"
       x="101.53933"
       y="136.96353"
       id="text15"><tspan
         sodipodi:role="line"
         id="tspan15"
         style="text-align:center;text-anchor:middle;stroke-width:0.160542"
         x="101.53933"
         y="136.96353">Manuall</tspan><tspan
         sodipodi:role="line"
         style="text-align:center;text-anchor:middle;stroke-width:0.160542"
         x="101.53933"
         y="144.99063"
         id="tspan16">Testing</tspan></text><text
       xml:space="preserve"
       style="font-style:normal;font-weight:normal;font-size:10.5833px;line-height:1.25;font-family:sans-serif;fill:#000000;fill-opacity:1;stroke:none;stroke-width:0.264583"
       x="69.175819"
       y="174.53593"
       id="text17"><tspan
         sodipodi:role="line"
         id="tspan17"
         style="stroke-width:0.264583"
         x="69.175819"
         y="174.53593">Smoke Tests</tspan></text><text
       xml:space="preserve"
       style="font-style:normal;font-weight:normal;font-size:10.5833px;line-height:1.25;font-family:sans-serif;fill:#000000;fill-opacity:1;stroke:none;stroke-width:0.264583"
       x="56.602959"
       y="205.01462"
       id="text18"><tspan
         sodipodi:role="line"
         id="tspan18"
         style="stroke-width:0.264583"
         x="56.602959"
         y="205.01462">Integration Tests</tspan></text><text
       xml:space="preserve"
       style="font-style:normal;font-weight:normal;font-size:10.5833px;line-height:1.25;font-family:sans-serif;fill:#000000;fill-opacity:1;stroke:none;stroke-width:0.264583"
       x="60.366226"
       y="236.24428"
       id="text19"><tspan
         sodipodi:role="line"
         id="tspan19"
         style="stroke-width:0.264583"
         x="60.366226"
         y="236.24428">Acceptance Tests</tspan></text><text
       xml:space="preserve"
       style="font-style:normal;font-weight:normal;font-size:10.5833px;line-height:1.25;font-family:sans-serif;fill:#000000;fill-opacity:1;stroke:none;stroke-width:0.264583"
       x="76.817673"
       y="267.10153"
       id="text20"><tspan
         sodipodi:role="line"
         id="tspan20"
         style="stroke-width:0.264583"
         x="76.817673"
         y="267.10153">Unit Tests</tspan></text></g></svg>
