<?xml version="1.0" encoding="UTF-8" standalone="no"?>
<!-- Created with Inkscape (http://www.inkscape.org/) -->

<svg
   width="115.5398mm"
   height="125.807mm"
   viewBox="0 0 115.5398 125.807"
   version="1.1"
   id="svg1"
   xml:space="preserve"
   inkscape:export-filename="6.svg"
   inkscape:export-xdpi="96"
   inkscape:export-ydpi="96"
   xmlns:inkscape="http://www.inkscape.org/namespaces/inkscape"
   xmlns:sodipodi="http://sodipodi.sourceforge.net/DTD/sodipodi-0.dtd"
   xmlns="http://www.w3.org/2000/svg"
   xmlns:svg="http://www.w3.org/2000/svg"><sodipodi:namedview
     id="namedview1"
     pagecolor="#ffffff"
     bordercolor="#666666"
     borderopacity="1.0"
     inkscape:showpageshadow="2"
     inkscape:pageopacity="0.0"
     inkscape:pagecheckerboard="0"
     inkscape:deskcolor="#d1d1d1"
     inkscape:document-units="mm" /><defs
     id="defs1" /><g
     inkscape:label="Layer 1"
     inkscape:groupmode="layer"
     id="layer1"
     transform="translate(-46.72907,-66.40209)"><path
       style="fill:none;stroke:#000000;stroke-width:2;stroke-linecap:butt;stroke-linejoin:miter;stroke-dasharray:none;stroke-opacity:1"
       d="m 66.337843,191.20908 h 70.949567 l -18.09214,-32.6368 H 87.267964 Z"
       id="path28" /><path
       style="fill:none;stroke:#000000;stroke-width:2;stroke-linecap:butt;stroke-linejoin:miter;stroke-dasharray:none;stroke-opacity:1"
       d="m 119.19527,157.86278 21.63962,-24.4776 H 70.24007 l 17.027894,23.76811 z"
       id="path29"
       sodipodi:nodetypes="ccccc" /><path
       style="fill:none;stroke:#000000;stroke-width:2;stroke-linecap:butt;stroke-linejoin:miter;stroke-dasharray:none;stroke-opacity:1"
       d="M 69.175825,132.67569 47.890956,97.200904 55.340659,84.429983 h 95.427171 l 10.28769,10.997182 -19.15639,36.893775 z"
       id="path30"
       sodipodi:nodetypes="ccccccc" /><path
       style="fill:none;stroke:#000000;stroke-width:2;stroke-linecap:butt;stroke-linejoin:miter;stroke-dasharray:none;stroke-opacity:1"
       d="M 55.340662,84.075234 65.628347,67.402087 h 74.851793 l 10.28769,16.673148 z"
       id="path31"
       sodipodi:nodetypes="ccccc" /><path
       style="fill:#ffe893;fill-opacity:1;stroke:none;stroke-width:10.135;stroke-linecap:round;stroke-dasharray:none;stroke-opacity:1;paint-order:markers fill stroke"
       d="m 260.01562,716.31128 c 0.73677,-1.2905 17.23154,-27.08374 36.65504,-57.31831 l 35.31546,-54.97194 h 58.07866 58.07865 l 31.28703,56.31272 c 17.20786,30.972 31.31388,56.76524 31.34672,57.31831 0.0328,0.55307 -56.67649,1.00559 -126.02073,1.00559 -119.69305,0 -126.01255,-0.11887 -124.74083,-2.34637 z"
       id="path32"
       transform="scale(0.26458333)" /><path
       style="fill:#fff3a3;fill-opacity:1;stroke:none;stroke-width:10.135;stroke-linecap:round;stroke-dasharray:none;stroke-opacity:1;paint-order:markers fill stroke"
       d="m 384.80363,591.05857 c -27.65357,-0.65547 -50.97635,-1.4355 -51.82839,-1.7334 -1.49192,-0.52161 -58.11551,-78.87014 -58.11551,-80.41286 0,-0.41635 55.81556,-0.757 124.03457,-0.757 h 124.03456 l -37.05449,41.89935 -37.05449,41.89935 -6.86852,0.14817 c -3.77768,0.0815 -29.49416,-0.38814 -57.14773,-1.04361 z"
       id="path33"
       transform="scale(0.26458333)" /><path
       style="fill:#fff9d0;fill-opacity:1;stroke:none;stroke-width:10.135;stroke-linecap:round;stroke-dasharray:none;stroke-opacity:1;paint-order:markers fill stroke"
       d="m 225.15783,432.24621 -39.01624,-65.01137 12.66933,-21.71833 12.66934,-21.71834 178.03747,-0.34012 178.03745,-0.34012 12.2666,13.07752 c 6.74663,7.19264 14.79466,15.85363 17.88451,19.24664 l 5.61791,6.1691 -34.33736,66.23297 c -18.88554,36.42813 -34.71755,66.61037 -35.18223,67.07166 -0.46469,0.46126 -61.32165,1.17687 -135.23771,1.59021 l -134.39282,0.75154 z"
       id="path34"
       transform="scale(0.26458333)" /><path
       style="fill:#fff9d0;fill-opacity:1;stroke:none;stroke-width:10.135;stroke-linecap:round;stroke-dasharray:none;stroke-opacity:1;paint-order:markers fill stroke"
       d="m 219.13527,310.05519 c 1.09885,-2.02793 8.56446,-14.24578 16.59024,-27.15078 l 14.59234,-23.46364 h 139.22129 139.22128 l 14.54709,23.46364 c 8.0009,12.905 15.44726,25.12285 16.54746,27.15078 l 2.00037,3.68714 H 389.49636 217.13737 Z"
       id="path35"
       transform="scale(0.26458333)" /><path
       style="fill:#fffac8;fill-opacity:1;stroke:none;stroke-width:10.135;stroke-linecap:round;stroke-dasharray:none;stroke-opacity:1;paint-order:markers fill stroke"
       d="m 219.86227,308.71441 c 1.55519,-2.76536 8.99912,-14.98321 16.54208,-27.15078 l 13.71447,-22.12286 h 139.38492 139.38493 l 16.4489,26.58943 c 9.0469,14.62418 16.44891,26.84203 16.44891,27.15078 0,0.30874 -77.56916,0.56135 -172.37591,0.56135 H 217.03465 Z"
       id="path36"
       transform="scale(0.26458333)" /><text
       xml:space="preserve"
       style="font-style:normal;font-weight:normal;font-size:10.5833px;line-height:1.25;font-family:sans-serif;fill:#000000;fill-opacity:1;stroke:none;stroke-width:0.264583"
       x="88.686958"
       y="178.43814"
       id="text36"><tspan
         sodipodi:role="line"
         id="tspan36"
         style="stroke-width:0.264583"
         x="88.686958"
         y="178.43814">Static</tspan></text><text
       xml:space="preserve"
       style="font-style:normal;font-weight:normal;font-size:10.5833px;line-height:1.25;font-family:sans-serif;fill:#000000;fill-opacity:1;stroke:none;stroke-width:0.264583"
       x="92.943924"
       y="148.63934"
       id="text37"><tspan
         sodipodi:role="line"
         id="tspan37"
         style="stroke-width:0.264583"
         x="92.943924"
         y="148.63934">Unit</tspan></text><text
       xml:space="preserve"
       style="font-style:normal;font-weight:normal;font-size:10.5833px;line-height:1.25;font-family:sans-serif;fill:#000000;fill-opacity:1;stroke:none;stroke-width:0.264583"
       x="75.561287"
       y="107.48859"
       id="text38"><tspan
         sodipodi:role="line"
         id="tspan38"
         style="stroke-width:0.264583"
         x="75.561287"
         y="107.48859">Integration</tspan></text><text
       xml:space="preserve"
       style="font-style:normal;font-weight:normal;font-size:10.5833px;line-height:1.25;font-family:sans-serif;fill:#000000;fill-opacity:1;stroke:none;stroke-width:0.264583"
       x="95.427162"
       y="78.399269"
       id="text39"><tspan
         sodipodi:role="line"
         id="tspan39"
         style="stroke-width:0.264583"
         x="95.427162"
         y="78.399269">E2E</tspan></text></g></svg>
