<?xml version="1.0" encoding="UTF-8" standalone="no"?>
<!-- Created with Inkscape (http://www.inkscape.org/) -->

<svg
   width="174.31374mm"
   height="114.99033mm"
   viewBox="0 0 174.31374 114.99033"
   version="1.1"
   id="svg1"
   xml:space="preserve"
   inkscape:export-filename="1"
   inkscape:export-xdpi="96"
   inkscape:export-ydpi="96"
   xmlns:inkscape="http://www.inkscape.org/namespaces/inkscape"
   xmlns:sodipodi="http://sodipodi.sourceforge.net/DTD/sodipodi-0.dtd"
   xmlns="http://www.w3.org/2000/svg"
   xmlns:svg="http://www.w3.org/2000/svg"><sodipodi:namedview
     id="namedview1"
     pagecolor="#ffffff"
     bordercolor="#666666"
     borderopacity="1.0"
     inkscape:showpageshadow="2"
     inkscape:pageopacity="0.0"
     inkscape:pagecheckerboard="0"
     inkscape:deskcolor="#d1d1d1"
     inkscape:document-units="mm" /><defs
     id="defs1" /><g
     inkscape:label="Layer 1"
     inkscape:groupmode="layer"
     id="layer1"
     transform="translate(-17.843134,-105.87139)"><path
       style="fill:none;stroke:#000000;stroke-width:2;stroke-linecap:butt;stroke-linejoin:miter;stroke-dasharray:none;stroke-opacity:1"
       d="M 19.79831,219.86171 H 190.08592 L 100.88765,107.52732 Z"
       id="path3"
       sodipodi:nodetypes="cccc" /><path
       style="fill:none;stroke:#000000;stroke-width:1.99125;stroke-linecap:round;stroke-linejoin:miter;stroke-dasharray:none;stroke-opacity:1"
       d="m 43.99182,186.24261 c 118.85797,0 118.85797,0 118.85797,0"
       id="path4" /><path
       style="fill:none;stroke:#000000;stroke-width:1.53206;stroke-linecap:round;stroke-linejoin:miter;stroke-dasharray:none;stroke-opacity:1"
       d="m 67.67823,154.54714 c 70.36052,0 70.36052,0 70.36052,0"
       id="path4-9" /><path
       style="fill:#fff49d;fill-opacity:1;stroke:none;stroke-width:2.682;stroke-linecap:round;stroke-dasharray:none;stroke-opacity:1;paint-order:markers fill stroke"
       d="m 23.12525,217.24274 c 0.64624,-0.90017 5.74279,-7.96409 11.32568,-15.69759 l 10.15071,-14.06093 59.08312,-0.0897 59.08313,-0.0897 12.18079,15.31703 c 6.69944,8.42437 12.30846,15.52866 12.46448,15.78732 0.23527,0.39002 -13.8611,0.47029 -82.58959,0.47029 H 21.95028 Z"
       id="path7" /><path
       style="fill:#a7fffe;fill-opacity:1;stroke:none;stroke-width:2.68155;stroke-linecap:round;stroke-dasharray:none;stroke-opacity:1;paint-order:markers fill stroke"
       d="m 46.47196,185.02251 c 0,-0.0857 4.7667,-6.75054 10.59267,-14.81072 l 10.59266,-14.65487 34.90374,-0.0831 34.90375,-0.0831 9.04607,11.41635 c 4.97534,6.279 10.28791,12.9812 11.80572,14.89379 l 2.75965,3.47744 h -57.30213 c -31.51617,0 -57.30213,-0.0701 -57.30213,-0.15585 z"
       id="path8" /><path
       style="fill:#ffa7a7;fill-opacity:1;stroke:none;stroke-width:2.68155;stroke-linecap:round;stroke-dasharray:none;stroke-opacity:1;paint-order:markers fill stroke"
       d="m 69.42426,153.13311 c 0.15603,-0.25999 7.28932,-10.1722 15.85177,-22.02713 l 15.56809,-21.55442 0.78549,0.83094 c 0.56195,0.59446 30.45933,38.23201 33.98219,42.77987 0.27424,0.35405 -6.39128,0.44344 -33.06387,0.44344 -27.73446,0 -33.35919,-0.0803 -33.12367,-0.4727 z"
       id="path9" /><text
       xml:space="preserve"
       style="font-style:normal;font-weight:normal;font-size:10.5833px;line-height:1.25;font-family:sans-serif;fill:#000000;fill-opacity:1;stroke:none;stroke-width:0.264583"
       x="93.889603"
       y="204.68948"
       id="text39"><tspan
         sodipodi:role="line"
         id="tspan39"
         style="stroke-width:0.264583"
         x="93.889603"
         y="204.68948">Unit</tspan></text><text
       xml:space="preserve"
       style="font-style:normal;font-weight:normal;font-size:10.5833px;line-height:1.25;font-family:sans-serif;fill:#000000;fill-opacity:1;stroke:none;stroke-width:0.264583"
       x="74.314636"
       y="171.3432"
       id="text40"><tspan
         sodipodi:role="line"
         id="tspan40"
         style="stroke-width:0.264583"
         x="74.314636"
         y="171.3432">Component</tspan></text><text
       xml:space="preserve"
       style="font-style:normal;font-weight:normal;font-size:10.5833px;line-height:1.25;font-family:sans-serif;fill:#000000;fill-opacity:1;stroke:none;stroke-width:0.264583"
       x="94.721588"
       y="140.8349"
       id="text41"><tspan
         sodipodi:role="line"
         id="tspan41"
         style="stroke-width:0.264583"
         x="94.721588"
         y="140.8349">E2E</tspan></text></g></svg>
